<?xml version="1.0" encoding="UTF-8" standalone="no"?>
<svg
   xmlns:dc="http://purl.org/dc/elements/1.1/"
   xmlns:cc="http://creativecommons.org/ns#"
   xmlns:rdf="http://www.w3.org/1999/02/22-rdf-syntax-ns#"
   xmlns:svg="http://www.w3.org/2000/svg"
   xmlns="http://www.w3.org/2000/svg"
   xmlns:sodipodi="http://sodipodi.sourceforge.net/DTD/sodipodi-0.dtd"
   xmlns:inkscape="http://www.inkscape.org/namespaces/inkscape"
   width="550mm"
   height="550mm"
   viewBox="0 0 550 550"
   version="1.1"
   id="svg8"
   inkscape:version="1.0.2 (e86c870879, 2021-01-15, custom)"
   sodipodi:docname="ModtechText.svg">
  <defs
     id="defs2">
    <rect
       x="13.607143"
       y="15.875"
       width="535.21429"
       height="263.07143"
       id="rect30" />
    <rect
       x="23.434525"
       y="37.797619"
       width="524.63092"
       height="142.875"
       id="rect24" />
    <rect
       x="265.33929"
       y="248.70833"
       width="38.55357"
       height="37.797619"
       id="rect18" />
    <rect
       x="3.7797618"
       y="207.8869"
       width="546.55359"
       height="0"
       id="rect12" />
  </defs>
  <sodipodi:namedview
     id="base"
     pagecolor="#ffffff"
     bordercolor="#666666"
     borderopacity="1.0"
     inkscape:pageopacity="0.0"
     inkscape:pageshadow="2"
     inkscape:zoom="0.35"
     inkscape:cx="1024.8147"
     inkscape:cy="975.34751"
     inkscape:document-units="mm"
     inkscape:current-layer="layer1"
     inkscape:document-rotation="0"
     showgrid="false"
     width="298mm"
     inkscape:window-width="1920"
     inkscape:window-height="1017"
     inkscape:window-x="-8"
     inkscape:window-y="-8"
     inkscape:window-maximized="1" />
  <metadata
     id="metadata5">
    <rdf:RDF>
      <cc:Work
         rdf:about="">
        <dc:format>image/svg+xml</dc:format>
        <dc:type
           rdf:resource="http://purl.org/dc/dcmitype/StillImage" />
        <dc:title></dc:title>
      </cc:Work>
    </rdf:RDF>
  </metadata>
  <g
     inkscape:label="Layer 1"
     inkscape:groupmode="layer"
     id="layer1">
    <path
       fill="#ff0066"
       d="m 463.2849,72.311124 c 44.69313,41.359566 72.36031,101.921906 81.93748,164.330496 9.22244,62.77803 1.06446,127.77175 -26.60313,184.64118 C 490.95208,478.52152 444.48543,527.63609 389.86054,543.51525 335.59022,559.39441 273.16182,542.03817 218.8915,515.44985 164.62135,488.86152 118.50928,453.04112 77.363318,402.81863 35.862474,352.59629 -0.31767231,287.60257 0.74650805,220.39329 1.8109721,153.55318 40.473697,84.497369 95.808049,44.984189 151.14242,5.8401758 223.14801,-3.76107 290.18777,2.5167052 356.87268,9.1637861 418.94649,31.320723 463.2849,72.311124 Z"
       id="path34"
       style="stroke-width:3.61921" />
  </g>
</svg>
